<svg width="1200" height="800" viewBox="0 0 1200 800" xmlns="http://www.w3.org/2000/svg">
  <defs>
    <linearGradient id="skyGrad" x1="0" y1="0" x2="0" y2="1">
      <stop offset="0%" stop-color="#03045e"/>
      <stop offset="60%" stop-color="#0077b6"/>
      <stop offset="100%" stop-color="#caf0f8"/>
    </linearGradient>
    <linearGradient id="peakGrad1" x1="0" y1="0" x2="0" y2="1">
      <stop offset="0%" stop-color="#ffffff"/>
      <stop offset="30%" stop-color="#caf0f8"/>
      <stop offset="100%" stop-color="#03045e"/>
    </linearGradient>
    <linearGradient id="peakGrad2" x1="0" y1="0" x2="0" y2="1">
      <stop offset="0%" stop-color="#ffffff"/>
      <stop offset="40%" stop-color="#90e0ef"/>
      <stop offset="100%" stop-color="#0077b6"/>
    </linearGradient>
  </defs>
  <rect width="1200" height="800" fill="url(#skyGrad)"/>
  <!-- Sun / Moon orb -->
  <circle cx="850" cy="200" r="85" fill="#ffffff" opacity="0.25"/>
  <circle cx="850" cy="200" r="60" fill="#ffffff" opacity="0.45"/>
  <!-- Far background ridges -->
  <polygon points="50,550 280,320 480,550" fill="#0077b6" opacity="0.35"/>
  <polygon points="320,550 560,260 820,550" fill="#03045e" opacity="0.45"/>
  <polygon points="700,550 920,280 1150,550" fill="#0077b6" opacity="0.4"/>
  <!-- Mid peaks with sharp ridge geometry -->
  <polygon points="120,680 340,360 460,540 620,310 800,680" fill="url(#peakGrad1)"/>
  <polygon points="480,680 720,280 940,680" fill="url(#peakGrad2)"/>
  <!-- Foreground geometric facets -->
  <polygon points="0,800 0,660 300,580 600,740 1200,620 1200,800" fill="#03045e"/>
  <polygon points="180,800 420,640 760,800" fill="#00b4d8" opacity="0.2"/>
  <polygon points="680,800 920,660 1200,780" fill="#0077b6" opacity="0.3"/>
  <!-- Elegant architectural grid lines -->
  <line x1="100" y1="740" x2="1100" y2="740" stroke="#90e0ef" stroke-width="1" opacity="0.4"/>
  <line x1="100" y1="760" x2="1100" y2="760" stroke="#90e0ef" stroke-width="1" stroke-dasharray="4,8" opacity="0.3"/>
  <!-- Text branding overlay -->
  <rect x="60" y="60" width="540" height="130" rx="8" fill="#03045e" opacity="0.75"/>
  <text x="90" y="105" font-family="sans-serif" font-size="28" font-weight="bold" fill="#ffffff" letter-spacing="2">EXPOSED RIDGE</text>
  <text x="90" y="145" font-family="sans-serif" font-size="14" font-weight="500" fill="#90e0ef" letter-spacing="3">DAY 3 VIA FERRATA</text>
</svg>